<?xml version="1.0" encoding="UTF-8"?>
<svg width="150px" height="204px" viewBox="0 0 150 204" version="1.1" xmlns="http://www.w3.org/2000/svg" xmlns:xlink="http://www.w3.org/1999/xlink">
    <!-- Generator: Sketch 63.1 (92452) - https://sketch.com -->
    <title>CFG_Logo_1080x1080_CMYK_Black</title>
    <desc>Created with Sketch.</desc>
    <defs>
        <polygon id="path-1" points="0 0 149.781333 0 149.781333 203.988667 0 203.988667"></polygon>
    </defs>
    <g id="Page-1" stroke="none" stroke-width="1" fill="none" fill-rule="evenodd">
        <g id="Artboard">
            <g id="CFG_Logo_1080x1080_CMYK_Black">
                <g id="Group-4">
                    <mask id="mask-2" fill="white">
                        <use xlink:href="#path-1"></use>
                    </mask>
                    <g id="Clip-2"></g>
                    <path d="M0,18.0149 L0,46.8839222 L34.7319444,46.8839222 L34.7319444,0 L17.9208333,0 C17.2980667,9.63465556 9.62105556,17.3422667 0,18.0149" id="Fill-1" fill="#000206" mask="url(#mask-2)"></path>
                    <path d="M48.9658556,197.793111 L143.639989,197.793111 L143.639989,6.20745556 L48.9658556,6.20745556 L48.9658556,197.793111 Z M143.639989,0 L42.7585889,0 L42.7585889,204 L149.847444,204 L149.847444,0 L143.639989,0 L143.639989,0 Z" id="Fill-3" fill="#000206" mask="url(#mask-2)"></path>
                </g>
                <polyline id="Fill-5" fill="#000206" points="135.679267 41.2788333 126.537044 41.2788333 126.537044 32.4016222 134.610722 32.4016222 134.610722 26.8949444 126.537044 26.8949444 126.537044 19.7574 135.679267 19.7574 135.679267 14.2188 119.909122 14.2188 119.909122 46.7855111 135.679267 46.7855111 135.679267 41.2788333"></polyline>
                <polyline id="Fill-6" fill="#000206" points="73.2479 55.573 73.2479 50.0345889 57.2248333 50.0345889 57.2248333 82.6011111 63.8525667 82.6011111 63.8525667 68.5322889 72.1791667 68.5322889 72.1791667 62.9940667 63.8525667 62.9940667 63.8525667 55.573 73.2479 55.573"></polyline>
                <polygon id="Fill-7" fill="#000206" points="76.3143222 82.6011111 82.5688111 82.6011111 82.5688111 50.0345889 76.3143222 50.0345889"></polygon>
                <polyline id="Fill-8" fill="#000206" points="124.651178 82.2450556 130.905667 82.2450556 130.905667 55.2167556 135.679267 55.2167556 135.679267 49.6783444 119.909122 49.6783444 119.909122 55.2167556 124.651178 55.2167556 124.651178 82.2450556"></polyline>
                <path d="M63.2065667,118.571033 C65.2193667,118.571033 67.3113111,117.958844 68.3413222,115.671778 C68.3900556,116.355178 68.4877111,117.514389 68.6341,118.083133 L73.3427222,118.083133 L73.3427222,99.4756889 L64.8986333,99.4756889 L64.8986333,104.7608 L67.0540444,104.7608 L67.0540444,109.431456 C67.0540444,112.109333 66.5342222,113.293856 65.0106444,113.293856 C63.7626556,113.293856 63.0479,112.482389 63.0479,110.265211 L63.0479,93.5717778 C63.0479,91.4492333 63.5767889,90.4005222 65.0106444,90.4005222 C66.7493667,90.4005222 66.9420333,91.8634667 66.9420333,93.4422 L66.9420333,95.2349444 L73.2479,95.2349444 L73.2479,93.7695444 C73.2479,90.4851444 72.4934778,85.0283333 64.9936444,85.0283333 C58.7799556,85.0283333 56.7129444,89.1623556 56.7129444,94.1562 L56.7129444,109.479056 C56.7129444,114.800056 58.1375444,118.571033 63.2065667,118.571033" id="Fill-9" fill="#000206"></path>
                <polygon id="Fill-10" fill="#000206" points="76.3143222 118.083133 82.5688111 118.083133 82.5688111 85.5162333 76.3143222 85.5162333"></polygon>
                <polyline id="Fill-11" fill="#000206" points="110.244433 85.5162333 103.6167 85.5162333 103.6167 118.083133 117.558778 118.083133 117.558778 112.602711 110.244433 112.602711 110.244433 85.5162333"></polyline>
                <path d="M127.680956,118.571033 C134.1504,118.571033 135.8929,114.369767 135.8929,109.270522 C135.8929,103.907589 134.174389,101.794489 129.384733,98.0312556 C126.691367,95.9302444 126.335311,94.962 126.335311,93.0005778 C126.335311,91.1564556 126.708744,90.1617667 127.864178,90.1617667 C129.102722,90.1617667 129.427233,91.1392667 129.427233,93.1152333 L129.427233,95.0660778 L135.341722,95.0660778 L135.341722,93.1917333 C135.341722,89.4642 134.374611,84.9966 127.8247,84.9966 C121.655589,84.9966 120.115011,89.2836222 120.115011,93.9355778 C120.115011,98.7329778 122.001444,100.572944 125.669289,103.680356 C128.994678,106.462122 129.572489,107.352544 129.572489,110.425956 C129.572489,111.962756 129.233433,113.437789 127.790322,113.437789 C126.361756,113.437789 125.830033,112.442911 125.830033,110.300722 L125.830033,108.045389 L119.695489,108.045389 L119.695489,109.997556 C119.695489,114.823667 121.468211,118.571033 127.680956,118.571033" id="Fill-12" fill="#000206"></path>
                <path d="M65.3476222,47.2736 C71.5613111,47.2736 73.9843778,43.1397667 73.9843778,38.1459222 L73.9843778,36.0893 L67.2933667,36.0893 L67.2933667,38.7303444 C67.2933667,40.8527 66.7642889,41.9014111 65.3304333,41.9014111 C63.5920889,41.9014111 63.3992333,40.4384667 63.3992333,38.8597333 L63.3901667,37.1051444 L63.3901667,22.3123111 C63.3901667,20.1897667 63.9572111,19.1030889 65.3908778,19.1030889 C67.1296,19.1030889 67.3224556,20.5660333 67.3224556,22.1447667 L67.3224556,24.5729333 L73.9843778,24.5729333 L73.9843778,22.4721111 C73.9843778,19.1877111 72.8737111,13.7309 65.3740667,13.7309 C59.1601889,13.7309 56.7371222,17.8647333 56.7371222,22.8587667 L56.7371222,38.5325778 C56.7371222,41.8167889 57.8476,47.2736 65.3476222,47.2736" id="Fill-13" fill="#000206"></path>
                <path d="M94.8605667,95.2982222 C94.8605667,98.3295111 94.0069778,98.9904333 91.9148444,98.9904333 L91.4955111,98.9904333 L91.4955111,90.4520889 L92.1167667,90.4520889 C94.4212111,90.4520889 94.8605667,91.5391444 94.8605667,93.7247778 L94.8605667,95.2982222 Z M92.6375333,85.5164222 L85.5800778,85.5164222 L85.5800778,118.083133 L91.4783222,118.083133 L91.4783222,103.925722 L91.8606333,103.925722 C94.2459222,103.925722 94.6652556,104.55 94.6652556,108.214256 L94.6652556,118.083133 L100.520056,118.083133 L100.520056,108.472656 C100.520056,103.928556 99.5688111,102.439356 97.5427889,101.460722 C98.9398111,100.801311 100.793189,99.4218556 100.793189,94.7799111 L100.793189,93.6086111 C100.793189,87.9141778 98.0954778,85.5164222 92.6375333,85.5164222 L92.6375333,85.5164222 Z" id="Fill-14" fill="#000206"></path>
                <path d="M84.0240111,22.2267444 C84.0240111,20.0660444 84.8324556,19.1030889 86.2923778,19.1030889 C88.0163667,19.1030889 88.6329,20.1440556 88.6329,22.1782 L88.6329,38.8408444 C88.6329,40.9819 87.9096444,41.9331444 86.3112667,41.9331444 C84.7791889,41.9331444 84.0240111,40.8842444 84.0240111,38.8725778 L84.0240111,22.2267444 Z M86.0441778,47.2736 C92.2754333,47.2736 95.6047889,44.5022222 95.6047889,38.0403333 L95.6047889,22.9324333 C95.6047889,16.4297444 91.8857556,13.7309 86.3617,13.7309 C80.8724,13.7309 77.0900889,16.4758333 77.0900889,22.7637556 L77.0900889,38.1036111 C77.0900889,44.4336556 80.1302556,47.2736 86.0441778,47.2736 L86.0441778,47.2736 Z" id="Fill-15" fill="#000206"></path>
                <path d="M105.174467,41.7376444 L105.174467,19.2982111 L106.610778,19.2982111 C109.281478,19.2982111 110.358522,20.6070222 110.358522,23.0117667 L110.358522,37.5956889 C110.358522,40.1364333 109.429944,41.7376444 106.665744,41.7376444 L105.174467,41.7376444 Z M117.060678,36.261 L117.060678,24.0191111 C117.060678,17.2780444 114.454578,14.2188 106.899022,14.2188 L98.5845111,14.2188 L98.5845111,46.7855111 L107.378422,46.7855111 C115.724289,46.7855111 117.060678,41.8732667 117.060678,36.261 L117.060678,36.261 Z" id="Fill-16" fill="#000206"></path>
                <path d="M94.8605667,59.8163889 C94.8605667,62.8476778 94.0069778,63.5086 91.9148444,63.5086 L91.4955111,63.5086 L91.4955111,54.9702556 L92.1167667,54.9702556 C94.4212111,54.9702556 94.8605667,56.0571222 94.8605667,58.2429444 L94.8605667,59.8163889 Z M92.6375333,50.0345889 L85.5800778,50.0345889 L85.5800778,82.6011111 L91.4783222,82.6011111 L91.4783222,68.4440778 L91.8606333,68.4440778 C94.2459222,68.4440778 94.6652556,69.0679778 94.6652556,72.7324222 L94.6652556,82.6011111 L100.520056,82.6011111 L100.520056,72.9906333 C100.520056,68.4467222 99.5688111,66.9575222 97.5427889,65.9788889 C98.9398111,65.3194778 100.793189,63.9398333 100.793189,59.2980778 L100.793189,58.1267778 C100.793189,52.4323444 98.0954778,50.0345889 92.6375333,50.0345889 L92.6375333,50.0345889 Z" id="Fill-17" fill="#000206"></path>
                <path d="M117.949022,59.6726444 L117.949022,57.7984889 C117.949022,54.0709556 117.027056,49.6033556 110.781444,49.6033556 C104.899444,49.6033556 103.430456,53.8903778 103.430456,58.5423333 C103.430456,63.3397333 105.229056,65.1797 108.726522,68.2871111 C111.897211,71.0690667 112.4482,71.9593 112.4482,75.0327111 C112.4482,76.5695111 112.125011,78.0443556 110.748767,78.0443556 C109.386689,78.0443556 108.879711,77.0496667 108.879711,74.9074778 L108.879711,72.6519556 L103.030578,72.6519556 L103.030578,74.6041222 C103.030578,79.4302333 104.720756,83.1777889 110.6445,83.1777889 C116.813233,83.1777889 118.474511,78.9767111 118.474511,73.8774667 C118.474511,68.5143444 116.8359,66.4012444 112.269133,62.6380111 C109.701,60.537 109.361378,59.5687556 109.361378,57.6071444 C109.361378,55.7632111 109.717244,54.7685222 110.819033,54.7685222 C112.000156,54.7685222 112.309744,55.7460222 112.309744,57.7219889 L112.309744,59.6726444 L117.949022,59.6726444" id="Fill-18" fill="#000206"></path>
            </g>
        </g>
    </g>
</svg>